<mxfile host="app.diagrams.net" modified="2023-04-11T08:40:01.426Z" agent="Mozilla/5.0 (Windows NT 10.0; Win64; x64) AppleWebKit/537.36 (KHTML, like Gecko) Chrome/112.0.0.0 Safari/537.36" etag="yiUoDPaCwXP6hL3WaR1p" version="21.1.5" type="device">
  <diagram name="Page-1" id="roTLst0PhBrPecfSe6S3">
    <mxGraphModel dx="1195" dy="637" grid="1" gridSize="10" guides="1" tooltips="1" connect="1" arrows="1" fold="1" page="1" pageScale="1" pageWidth="850" pageHeight="1100" math="0" shadow="0">
      <root>
        <mxCell id="0" />
        <mxCell id="1" parent="0" />
        <mxCell id="iKagz6P2Hb9vOgtUHqj6-51" value="" style="rounded=0;whiteSpace=wrap;html=1;" vertex="1" parent="1">
          <mxGeometry x="55" y="180" width="600" height="400" as="geometry" />
        </mxCell>
        <mxCell id="iKagz6P2Hb9vOgtUHqj6-3" value="• delete breakpoints after all events&lt;br&gt;• delete breakpoints before all events&lt;br&gt;• combine adjacent breakpoints that cover no events" style="edgeStyle=orthogonalEdgeStyle;rounded=0;orthogonalLoop=1;jettySize=auto;html=1;align=left;" edge="1" parent="1" source="iKagz6P2Hb9vOgtUHqj6-1">
          <mxGeometry x="-0.0909" y="5" relative="1" as="geometry">
            <mxPoint x="355" y="269.9999999999999" as="targetPoint" />
            <mxPoint as="offset" />
          </mxGeometry>
        </mxCell>
        <mxCell id="iKagz6P2Hb9vOgtUHqj6-1" value="check &#39;breakpoint&#39;" style="rounded=1;whiteSpace=wrap;html=1;" vertex="1" parent="1">
          <mxGeometry x="290" y="190" width="130" height="30" as="geometry" />
        </mxCell>
        <mxCell id="iKagz6P2Hb9vOgtUHqj6-6" value="mle/hybrid" style="edgeStyle=orthogonalEdgeStyle;rounded=0;orthogonalLoop=1;jettySize=auto;html=1;exitX=0;exitY=0.5;exitDx=0;exitDy=0;entryX=0.5;entryY=0;entryDx=0;entryDy=0;fontStyle=1;fontSize=12;" edge="1" parent="1" source="iKagz6P2Hb9vOgtUHqj6-4" target="iKagz6P2Hb9vOgtUHqj6-5">
          <mxGeometry x="-0.2754" y="-15" relative="1" as="geometry">
            <Array as="points">
              <mxPoint x="150" y="295" />
            </Array>
            <mxPoint as="offset" />
          </mxGeometry>
        </mxCell>
        <mxCell id="iKagz6P2Hb9vOgtUHqj6-10" value="ols" style="edgeStyle=orthogonalEdgeStyle;rounded=0;orthogonalLoop=1;jettySize=auto;html=1;fontStyle=1;fontSize=12;" edge="1" parent="1" source="iKagz6P2Hb9vOgtUHqj6-4" target="iKagz6P2Hb9vOgtUHqj6-9">
          <mxGeometry x="-0.2272" y="15" relative="1" as="geometry">
            <mxPoint as="offset" />
          </mxGeometry>
        </mxCell>
        <mxCell id="iKagz6P2Hb9vOgtUHqj6-4" value="optimizer" style="rhombus;whiteSpace=wrap;html=1;" vertex="1" parent="1">
          <mxGeometry x="315" y="270" width="80" height="50" as="geometry" />
        </mxCell>
        <mxCell id="iKagz6P2Hb9vOgtUHqj6-25" style="edgeStyle=orthogonalEdgeStyle;rounded=0;orthogonalLoop=1;jettySize=auto;html=1;entryX=0.5;entryY=0;entryDx=0;entryDy=0;" edge="1" parent="1" source="iKagz6P2Hb9vOgtUHqj6-5" target="iKagz6P2Hb9vOgtUHqj6-24">
          <mxGeometry relative="1" as="geometry" />
        </mxCell>
        <mxCell id="iKagz6P2Hb9vOgtUHqj6-5" value="list all potential breakpoints" style="rounded=1;whiteSpace=wrap;html=1;" vertex="1" parent="1">
          <mxGeometry x="90" y="310" width="120" height="50" as="geometry" />
        </mxCell>
        <mxCell id="iKagz6P2Hb9vOgtUHqj6-12" value="" style="edgeStyle=orthogonalEdgeStyle;rounded=0;orthogonalLoop=1;jettySize=auto;html=1;entryX=0.5;entryY=0;entryDx=0;entryDy=0;" edge="1" parent="1" source="iKagz6P2Hb9vOgtUHqj6-9" target="iKagz6P2Hb9vOgtUHqj6-30">
          <mxGeometry relative="1" as="geometry" />
        </mxCell>
        <mxCell id="iKagz6P2Hb9vOgtUHqj6-9" value="fit piecewise log(S) with KM estimator" style="rounded=1;whiteSpace=wrap;html=1;" vertex="1" parent="1">
          <mxGeometry x="500" y="330" width="120" height="50" as="geometry" />
        </mxCell>
        <mxCell id="iKagz6P2Hb9vOgtUHqj6-11" value="estimate MLE hazard rates" style="whiteSpace=wrap;html=1;rounded=1;" vertex="1" parent="1">
          <mxGeometry x="500" y="520" width="120" height="50" as="geometry" />
        </mxCell>
        <mxCell id="iKagz6P2Hb9vOgtUHqj6-23" value="exhaustive search to obtain MLE estimator" style="rounded=1;whiteSpace=wrap;html=1;" vertex="1" parent="1">
          <mxGeometry x="270" y="520" width="120" height="50" as="geometry" />
        </mxCell>
        <mxCell id="iKagz6P2Hb9vOgtUHqj6-27" value="&amp;gt; &#39;max_set&#39;" style="edgeStyle=orthogonalEdgeStyle;rounded=0;orthogonalLoop=1;jettySize=auto;html=1;entryX=0.5;entryY=0;entryDx=0;entryDy=0;exitX=1;exitY=0.5;exitDx=0;exitDy=0;" edge="1" parent="1" source="iKagz6P2Hb9vOgtUHqj6-24" target="iKagz6P2Hb9vOgtUHqj6-41">
          <mxGeometry x="0.1667" y="10" relative="1" as="geometry">
            <Array as="points">
              <mxPoint x="220" y="410" />
              <mxPoint x="220" y="380" />
              <mxPoint x="330" y="380" />
            </Array>
            <mxPoint as="offset" />
          </mxGeometry>
        </mxCell>
        <mxCell id="iKagz6P2Hb9vOgtUHqj6-29" value="&amp;lt;= &#39;max_set&#39;" style="edgeStyle=orthogonalEdgeStyle;rounded=0;orthogonalLoop=1;jettySize=auto;html=1;exitX=0.5;exitY=1;exitDx=0;exitDy=0;entryX=0;entryY=0.5;entryDx=0;entryDy=0;" edge="1" parent="1" source="iKagz6P2Hb9vOgtUHqj6-24" target="iKagz6P2Hb9vOgtUHqj6-23">
          <mxGeometry x="-0.8462" y="-40" relative="1" as="geometry">
            <Array as="points">
              <mxPoint x="150" y="545" />
            </Array>
            <mxPoint as="offset" />
          </mxGeometry>
        </mxCell>
        <mxCell id="iKagz6P2Hb9vOgtUHqj6-24" value="number of combinations" style="rhombus;whiteSpace=wrap;html=1;" vertex="1" parent="1">
          <mxGeometry x="95" y="380" width="110" height="60" as="geometry" />
        </mxCell>
        <mxCell id="iKagz6P2Hb9vOgtUHqj6-48" style="edgeStyle=orthogonalEdgeStyle;rounded=0;orthogonalLoop=1;jettySize=auto;html=1;exitX=0.5;exitY=1;exitDx=0;exitDy=0;entryX=0.5;entryY=0;entryDx=0;entryDy=0;" edge="1" parent="1" source="iKagz6P2Hb9vOgtUHqj6-26" target="iKagz6P2Hb9vOgtUHqj6-23">
          <mxGeometry relative="1" as="geometry">
            <Array as="points">
              <mxPoint x="255" y="500" />
              <mxPoint x="330" y="500" />
            </Array>
          </mxGeometry>
        </mxCell>
        <mxCell id="iKagz6P2Hb9vOgtUHqj6-26" value="uniform sub-sample" style="rounded=1;whiteSpace=wrap;html=1;" vertex="1" parent="1">
          <mxGeometry x="195" y="435" width="120" height="50" as="geometry" />
        </mxCell>
        <mxCell id="iKagz6P2Hb9vOgtUHqj6-31" style="edgeStyle=orthogonalEdgeStyle;rounded=0;orthogonalLoop=1;jettySize=auto;html=1;exitX=0.5;exitY=1;exitDx=0;exitDy=0;entryX=0.5;entryY=0;entryDx=0;entryDy=0;" edge="1" parent="1" source="iKagz6P2Hb9vOgtUHqj6-30" target="iKagz6P2Hb9vOgtUHqj6-11">
          <mxGeometry relative="1" as="geometry" />
        </mxCell>
        <mxCell id="iKagz6P2Hb9vOgtUHqj6-45" style="edgeStyle=orthogonalEdgeStyle;rounded=0;orthogonalLoop=1;jettySize=auto;html=1;exitX=0;exitY=0.5;exitDx=0;exitDy=0;entryX=1;entryY=0.5;entryDx=0;entryDy=0;" edge="1" parent="1" source="iKagz6P2Hb9vOgtUHqj6-30" target="iKagz6P2Hb9vOgtUHqj6-43">
          <mxGeometry relative="1" as="geometry" />
        </mxCell>
        <mxCell id="iKagz6P2Hb9vOgtUHqj6-30" value="obtain OLS breakpoints" style="rounded=1;whiteSpace=wrap;html=1;" vertex="1" parent="1">
          <mxGeometry x="500" y="420" width="120" height="50" as="geometry" />
        </mxCell>
        <mxCell id="iKagz6P2Hb9vOgtUHqj6-42" value="mle" style="edgeStyle=orthogonalEdgeStyle;rounded=0;orthogonalLoop=1;jettySize=auto;html=1;entryX=0.5;entryY=0;entryDx=0;entryDy=0;fontStyle=1;fontSize=12;exitX=0;exitY=0.5;exitDx=0;exitDy=0;" edge="1" parent="1" source="iKagz6P2Hb9vOgtUHqj6-41" target="iKagz6P2Hb9vOgtUHqj6-26">
          <mxGeometry x="0.4483" relative="1" as="geometry">
            <Array as="points">
              <mxPoint x="255" y="405" />
            </Array>
            <mxPoint as="offset" />
          </mxGeometry>
        </mxCell>
        <mxCell id="iKagz6P2Hb9vOgtUHqj6-44" value="hybrid" style="edgeStyle=orthogonalEdgeStyle;rounded=0;orthogonalLoop=1;jettySize=auto;html=1;entryX=0.5;entryY=0;entryDx=0;entryDy=0;fontStyle=1;fontSize=12;exitX=1;exitY=0.5;exitDx=0;exitDy=0;" edge="1" parent="1" source="iKagz6P2Hb9vOgtUHqj6-41" target="iKagz6P2Hb9vOgtUHqj6-43">
          <mxGeometry x="0.4074" relative="1" as="geometry">
            <Array as="points">
              <mxPoint x="400" y="405" />
            </Array>
            <mxPoint as="offset" />
          </mxGeometry>
        </mxCell>
        <mxCell id="iKagz6P2Hb9vOgtUHqj6-41" value="optimizer" style="rhombus;whiteSpace=wrap;html=1;" vertex="1" parent="1">
          <mxGeometry x="287.5" y="380" width="85" height="50" as="geometry" />
        </mxCell>
        <mxCell id="iKagz6P2Hb9vOgtUHqj6-49" style="edgeStyle=orthogonalEdgeStyle;rounded=0;orthogonalLoop=1;jettySize=auto;html=1;entryX=0.5;entryY=0;entryDx=0;entryDy=0;" edge="1" parent="1" source="iKagz6P2Hb9vOgtUHqj6-43" target="iKagz6P2Hb9vOgtUHqj6-23">
          <mxGeometry relative="1" as="geometry">
            <Array as="points">
              <mxPoint x="400" y="500" />
              <mxPoint x="330" y="500" />
            </Array>
          </mxGeometry>
        </mxCell>
        <mxCell id="iKagz6P2Hb9vOgtUHqj6-43" value="sub-sample&amp;nbsp;from 95% CI of OLS breakpoints" style="rounded=1;whiteSpace=wrap;html=1;" vertex="1" parent="1">
          <mxGeometry x="340" y="435" width="120" height="50" as="geometry" />
        </mxCell>
      </root>
    </mxGraphModel>
  </diagram>
</mxfile>
